<?xml version="1.0" encoding="UTF-8" standalone="no"?><!-- Generator: Gravit.io --><svg xmlns="http://www.w3.org/2000/svg" xmlns:xlink="http://www.w3.org/1999/xlink" style="isolation:isolate" viewBox="0 0 440 210" width="440pt" height="210pt"><g><g><g><g><path d=" M 361.094 135.391 C 361.094 105.698 337.023 81.628 307.331 81.628 C 277.638 81.628 253.568 105.698 253.568 135.391 C 253.568 165.083 277.638 189.154 307.331 189.154 C 337.023 189.154 361.094 165.083 361.094 135.391 Z " fill="rgb(255,171,59)"/><path d=" M 342.937 95.113 C 347.151 102.783 349.55 111.591 349.55 120.96 C 349.55 150.653 325.479 174.724 295.787 174.724 C 282.129 174.724 269.663 169.628 260.18 161.238 C 269.32 177.876 287.008 189.154 307.331 189.154 C 337.023 189.154 361.094 165.083 361.094 135.391 C 361.094 119.356 354.071 104.963 342.937 95.113 Z " fill="rgb(255,171,59)"/><path d=" M 307.331 187.917 C 305.27 187.917 303.237 187.794 301.237 187.561 C 299.661 187.069 297.632 186.18 296.013 184.618 C 295.959 184.363 295.857 183.808 295.771 182.979 C 297.938 183.244 300.145 183.381 302.383 183.381 C 314.995 183.381 326.591 179.04 335.761 171.769 C 335.52 176.891 333.532 179.58 333.51 179.61 L 332.835 180.484 L 334.023 180.612 C 326.196 185.25 317.07 187.917 307.331 187.917 M 291.968 184.63 C 290.949 184.63 289.722 184.561 288.323 184.357 C 281.793 181.813 275.893 178 270.928 173.222 C 277.758 178.158 285.792 181.529 294.508 182.809 C 294.573 183.512 294.653 184.059 294.72 184.44 C 294.165 184.525 293.225 184.63 291.968 184.63 M 356.684 153.377 L 352.859 151.464 C 352.853 150.406 352.827 149.377 352.782 148.381 C 354.957 142.54 356.146 136.217 356.146 129.619 C 356.146 124.524 355.437 119.594 354.113 114.924 C 354.678 115.139 355.335 115.406 356.034 115.726 C 358.497 121.803 359.857 128.441 359.857 135.391 C 359.857 141.706 358.736 147.764 356.684 153.377 M 351.069 152.456 C 351.258 152.053 351.441 151.65 351.621 151.241 C 351.622 151.379 351.623 151.518 351.623 151.656 C 351.437 151.927 351.253 152.193 351.069 152.456 Z  M 355.333 114.075 C 354.692 113.813 354.123 113.603 353.67 113.444 C 352.771 110.593 351.641 107.844 350.301 105.219 C 352.251 107.987 353.94 110.951 355.333 114.075 Z " fill="rgb(255,171,59)"/><path d=" M 301.237 187.561 C 299.661 187.069 297.632 186.18 296.013 184.618 C 295.858 183.881 295.293 180.636 295.908 175.493 C 298.109 175.046 307.924 172.776 316.508 166.397 C 317.857 167.338 322.678 170.112 332.652 170.112 C 333.64 170.112 334.682 170.083 335.773 170.024 C 335.973 176.279 333.535 179.577 333.51 179.61 L 332.835 180.484 L 334.023 180.612 C 326.196 185.25 317.07 187.917 307.331 187.917 C 305.27 187.917 303.237 187.794 301.237 187.561 M 263.74 164.666 L 263.981 164.642 L 263.61 163.851 C 262.167 160.772 262.279 156.921 262.439 155.097 C 264.157 156.275 268.321 158.511 275.184 158.511 C 276.315 158.511 277.523 158.446 278.801 158.31 C 279.355 159.225 280.997 161.848 283.351 164.84 C 285.982 168.183 290.059 172.665 294.685 175.303 C 294.118 179.995 294.495 183.157 294.72 184.44 C 293.715 184.594 291.448 184.813 288.323 184.357 C 278.26 180.437 269.693 173.503 263.74 164.666 M 326.633 86.538 C 329.025 88.419 332.956 91.902 335.037 95.896 C 328.49 98.549 323.635 102.476 322.341 103.58 C 314.327 99.131 300.631 97.598 298.226 97.358 C 295.726 92.194 292.08 88.611 290.608 87.293 C 291.958 86.47 295.256 84.653 299.835 83.402 C 302.284 83.05 304.786 82.864 307.331 82.864 C 314.142 82.864 320.655 84.168 326.633 86.538 Z  M 355.333 114.075 C 354.128 113.582 353.178 113.273 352.77 113.148 C 345.761 102.647 337.521 96.618 336.373 95.807 C 334.99 92.93 332.715 90.326 330.583 88.301 C 340.984 93.458 349.444 101.96 354.547 112.393 C 354.818 112.948 355.08 113.509 355.333 114.075 M 356.684 153.377 L 352.859 151.464 C 352.797 139.068 349.791 130.842 349.2 129.344 C 351.629 123.381 352.628 116.7 352.908 114.493 C 353.601 114.724 354.745 115.138 356.034 115.726 C 358.497 121.803 359.857 128.441 359.857 135.391 C 359.857 141.706 358.736 147.764 356.684 153.377 Z  M 317.127 165.315 C 317.099 163.308 316.808 151.817 313.807 143.301 C 315.581 141.897 323.684 135.23 330.228 125.676 C 337.608 128.044 346.271 129.586 348.086 129.895 C 348.716 131.546 351.593 139.735 351.623 151.656 C 342.914 164.312 337.042 168.231 336.185 168.761 C 323.851 169.525 318.237 166.1 317.127 165.315 M 264.83 113.752 C 263.678 114.825 258.46 120.11 255.018 130.677 C 256.043 119.211 260.767 108.795 267.987 100.632 C 264.956 107.085 264.813 112.438 264.83 113.752 M 289.281 86.673 C 284.713 88.466 280.127 90.84 276.602 92.818 C 281.155 89.523 286.253 86.936 291.735 85.228 C 290.367 85.946 289.518 86.509 289.281 86.673 Z  M 321.904 104.752 C 323.606 110.281 328.469 122.778 329.284 124.866 C 322.691 134.533 314.451 141.222 312.947 142.404 C 311.035 141.847 300.504 138.905 289.788 138.364 C 282.158 126.583 282.633 116.889 282.748 115.521 L 298.07 98.587 C 300.27 98.811 314.181 100.381 321.904 104.752 M 262.426 153.538 C 256.492 144.275 255.641 134.197 255.566 133.123 C 258.83 121.604 264.53 115.747 265.66 114.673 C 271.704 115.511 279.266 115.79 281.493 115.858 C 281.247 118.807 281.646 128.016 288.684 138.932 C 287.464 140.558 282.31 147.708 278.691 157.078 C 268.303 158.186 263.005 154.024 262.426 153.538 Z  M 307.331 80.391 C 277.003 80.391 252.331 105.063 252.331 135.391 C 252.331 165.718 277.003 190.391 307.331 190.391 C 337.658 190.391 362.331 165.718 362.331 135.391 C 362.331 105.063 337.658 80.391 307.331 80.391 Z " fill="rgb(39,39,43)"/><path d=" M 264.832 113.241 C 263.191 111.269 264.09 107.529 266.814 103.437 C 265.14 107.988 264.864 111.671 264.832 113.241 Z " fill="rgb(255,171,59)"/><path d=" M 268.382 114.596 C 266.848 114.596 265.625 114.17 264.857 113.271 C 264.848 113.261 264.84 113.251 264.832 113.241 C 264.864 111.671 265.14 107.988 266.814 103.437 C 268.475 100.941 270.816 98.313 273.672 95.876 C 279.078 91.263 284.868 88.583 288.713 88.583 C 290.247 88.583 291.471 89.009 292.238 89.909 C 294.931 93.064 290.985 100.853 283.423 107.304 C 278.018 111.916 272.227 114.596 268.382 114.596 M 283.205 91.854 C 281.105 91.854 277.558 93.617 274.145 96.529 C 269.641 100.372 267.076 104.759 268.416 106.329 C 268.74 106.709 269.264 106.889 269.935 106.889 C 272.036 106.889 275.582 105.126 278.996 102.214 C 283.499 98.372 286.064 93.984 284.725 92.414 C 284.4 92.034 283.876 91.854 283.205 91.854" fill="rgb(39,39,43)"/><path d=" M 269.935 106.889 C 269.264 106.889 268.74 106.709 268.416 106.329 C 267.076 104.759 269.641 100.372 274.145 96.529 C 277.558 93.617 281.105 91.854 283.205 91.854 C 283.876 91.854 284.4 92.034 284.725 92.414 C 286.064 93.984 283.499 98.372 278.996 102.214 C 275.582 105.126 272.036 106.889 269.935 106.889" fill="rgb(39,39,43)"/></g></g><path d=" M 211.938 71.77 L 202.218 71.77 L 202.218 54.79 L 193.998 20.23 L 204.198 20.23 L 207.078 37.69 L 209.958 20.23 L 220.158 20.23 L 211.938 54.79 L 211.938 71.77 L 211.938 71.77 Z  M 34.458 71.77 L 24.078 71.77 L 24.078 20.23 L 44.718 20.23 L 44.718 30.25 L 34.458 30.25 L 34.458 38.47 L 44.178 38.47 L 44.178 48.37 L 34.458 48.37 L 34.458 71.77 L 34.458 71.77 Z  M 59.958 72.25 L 59.958 72.25 Q 53.598 72.25 50.508 68.65 L 50.508 68.65 L 50.508 68.65 Q 47.418 65.05 47.418 57.97 L 47.418 57.97 L 47.418 20.23 L 57.438 20.23 L 57.438 57.55 L 57.438 57.55 Q 57.438 60.01 57.918 61.39 L 57.918 61.39 L 57.918 61.39 Q 58.398 62.77 59.958 62.77 L 59.958 62.77 L 59.958 62.77 Q 61.518 62.77 61.998 61.42 L 61.998 61.42 L 61.998 61.42 Q 62.478 60.07 62.478 57.55 L 62.478 57.55 L 62.478 20.23 L 72.498 20.23 L 72.498 57.97 L 72.498 57.97 Q 72.498 65.05 69.408 68.65 L 69.408 68.65 L 69.408 68.65 Q 66.318 72.25 59.958 72.25 L 59.958 72.25 L 59.958 72.25 Z  M 91.218 71.77 L 80.898 71.77 L 80.898 30.13 L 74.778 30.13 L 74.778 20.23 L 97.338 20.23 L 97.338 30.13 L 91.218 30.13 L 91.218 71.77 L 91.218 71.77 Z  M 100.218 71.77 L 100.218 20.23 L 114.198 20.23 L 114.198 20.23 Q 119.838 20.23 122.388 22.99 L 122.388 22.99 L 122.388 22.99 Q 124.938 25.75 124.938 31.99 L 124.938 31.99 L 124.938 34.27 L 124.938 34.27 Q 124.938 41.65 119.658 43.09 L 119.658 43.09 L 119.658 43.09 Q 122.898 43.93 124.218 46.99 L 124.218 46.99 L 124.218 46.99 Q 125.538 50.05 125.538 55.09 L 125.538 55.09 L 125.538 55.09 Q 125.538 63.31 123.078 67.54 L 123.078 67.54 L 123.078 67.54 Q 120.618 71.77 114.198 71.77 L 114.198 71.77 L 100.218 71.77 L 100.218 71.77 Z  M 110.298 39.61 L 112.398 39.61 L 112.398 39.61 Q 113.718 39.61 114.198 38.62 L 114.198 38.62 L 114.198 38.62 Q 114.678 37.63 114.678 35.83 L 114.678 35.83 L 114.678 30.67 L 114.678 30.67 Q 114.678 28.15 112.458 28.15 L 112.458 28.15 L 110.298 28.15 L 110.298 39.61 L 110.298 39.61 Z  M 111.318 62.71 L 111.318 62.71 Q 115.338 62.71 115.338 58.87 L 115.338 58.87 L 115.338 52.45 L 115.338 52.45 Q 115.338 50.11 114.648 48.91 L 114.648 48.91 L 114.648 48.91 Q 113.958 47.71 112.218 47.71 L 112.218 47.71 L 110.298 47.71 L 110.298 62.65 L 111.318 62.71 L 111.318 62.71 Z  M 141.258 72.25 L 141.258 72.25 Q 135.018 72.25 131.778 68.44 L 131.778 68.44 L 131.778 68.44 Q 128.538 64.63 128.538 57.73 L 128.538 57.73 L 128.538 33.19 L 128.538 33.19 Q 128.538 26.53 131.778 23.14 L 131.778 23.14 L 131.778 23.14 Q 135.018 19.75 141.258 19.75 L 141.258 19.75 L 141.258 19.75 Q 147.498 19.75 150.738 23.14 L 150.738 23.14 L 150.738 23.14 Q 153.978 26.53 153.978 33.19 L 153.978 33.19 L 153.978 57.73 L 153.978 57.73 Q 153.978 64.69 150.738 68.47 L 150.738 68.47 L 150.738 68.47 Q 147.498 72.25 141.258 72.25 L 141.258 72.25 L 141.258 72.25 Z  M 141.258 62.77 L 141.258 62.77 Q 142.638 62.77 143.118 61.57 L 143.118 61.57 L 143.118 61.57 Q 143.598 60.37 143.598 58.21 L 143.598 58.21 L 143.598 33.01 L 143.598 33.01 Q 143.598 31.33 143.148 30.28 L 143.148 30.28 L 143.148 30.28 Q 142.698 29.23 141.318 29.23 L 141.318 29.23 L 141.318 29.23 Q 138.738 29.23 138.738 33.13 L 138.738 33.13 L 138.738 58.27 L 138.738 58.27 Q 138.738 60.49 139.278 61.63 L 139.278 61.63 L 139.278 61.63 Q 139.818 62.77 141.258 62.77 L 141.258 62.77 L 141.258 62.77 Z  M 179.058 71.77 L 158.118 71.77 L 158.118 20.23 L 168.438 20.23 L 168.438 63.01 L 179.058 63.01 L 179.058 71.77 L 179.058 71.77 Z " fill="rgb(255,255,255)"/><path d=" M 33.929 189.116 L 13.889 189.116 L 23.849 86.036 L 58.769 86.036 L 68.609 189.116 L 49.049 189.116 L 47.609 172.436 L 35.129 172.436 L 33.929 189.116 L 33.929 189.116 Z  M 40.529 103.556 L 36.689 155.996 L 46.049 155.996 L 41.489 103.556 L 40.529 103.556 L 40.529 103.556 Z  M 93.449 189.116 L 74.849 189.116 L 74.849 86.036 L 106.289 86.036 L 114.929 148.916 L 123.569 86.036 L 155.249 86.036 L 155.249 189.116 L 136.409 189.116 L 136.409 114.836 L 124.529 189.116 L 106.049 189.116 L 93.449 114.836 L 93.449 189.116 L 93.449 189.116 Z  M 183.329 189.116 L 163.409 189.116 L 163.409 86.036 L 183.329 86.036 L 183.329 189.116 L 183.329 189.116 Z  M 212.849 190.076 L 212.849 190.076 Q 201.689 190.076 196.229 182.216 L 196.229 182.216 L 196.229 182.216 Q 190.769 174.356 190.769 158.396 L 190.769 158.396 L 190.769 113.996 L 190.769 113.996 Q 190.769 99.716 197.129 92.396 L 197.129 92.396 L 197.129 92.396 Q 203.489 85.076 216.089 85.076 L 216.089 85.076 L 216.089 85.076 Q 226.289 85.076 231.929 89.156 L 231.929 89.156 L 231.929 89.156 Q 237.569 93.236 239.729 101.036 L 239.729 101.036 L 239.729 101.036 Q 241.889 108.836 241.889 121.076 L 241.889 121.076 L 221.729 121.076 L 221.729 111.836 L 221.729 111.836 Q 221.729 108.116 220.709 106.076 L 220.709 106.076 L 220.709 106.076 Q 219.689 104.036 217.049 104.036 L 217.049 104.036 L 217.049 104.036 Q 211.169 104.036 211.169 111.716 L 211.169 111.716 L 211.169 161.636 L 211.169 161.636 Q 211.169 166.316 212.369 168.716 L 212.369 168.716 L 212.369 168.716 Q 213.569 171.116 216.569 171.116 L 216.569 171.116 L 216.569 171.116 Q 219.569 171.116 220.769 168.716 L 220.769 168.716 L 220.769 168.716 Q 221.969 166.316 221.969 161.636 L 221.969 161.636 L 221.969 146.876 L 216.449 146.876 L 216.449 129.116 L 241.649 129.116 L 241.649 189.116 L 233.369 189.116 L 229.889 180.476 L 229.889 180.476 Q 224.369 190.076 212.849 190.076 L 212.849 190.076 L 212.849 190.076 Z " fill="rgb(255,171,59)"/><path d=" M 399.711 190.076 L 399.711 190.076 Q 385.671 190.076 379.431 183.116 L 379.431 183.116 L 379.431 183.116 Q 373.191 176.156 373.191 160.676 L 373.191 160.676 L 373.191 150.596 L 393.471 150.596 L 393.471 163.436 L 393.471 163.436 Q 393.471 171.116 398.391 171.116 L 398.391 171.116 L 398.391 171.116 Q 401.151 171.116 402.231 169.496 L 402.231 169.496 L 402.231 169.496 Q 403.311 167.876 403.311 164.036 L 403.311 164.036 L 403.311 164.036 Q 403.311 158.996 402.111 155.696 L 402.111 155.696 L 402.111 155.696 Q 400.911 152.396 399.051 150.176 L 399.051 150.176 L 399.051 150.176 Q 397.191 147.956 392.391 143.276 L 392.391 143.276 L 383.511 134.396 L 383.511 134.396 Q 373.191 124.316 373.191 112.076 L 373.191 112.076 L 373.191 112.076 Q 373.191 98.876 379.251 91.976 L 379.251 91.976 L 379.251 91.976 Q 385.311 85.076 396.951 85.076 L 396.951 85.076 L 396.951 85.076 Q 410.871 85.076 416.991 92.456 L 416.991 92.456 L 416.991 92.456 Q 423.111 99.836 423.111 115.556 L 423.111 115.556 L 402.111 115.556 L 401.991 108.476 L 401.991 108.476 Q 401.991 106.436 400.851 105.236 L 400.851 105.236 L 400.851 105.236 Q 399.711 104.036 397.671 104.036 L 397.671 104.036 L 397.671 104.036 Q 395.271 104.036 394.071 105.356 L 394.071 105.356 L 394.071 105.356 Q 392.871 106.676 392.871 108.956 L 392.871 108.956 L 392.871 108.956 Q 392.871 113.996 398.631 119.396 L 398.631 119.396 L 410.631 130.916 L 410.631 130.916 Q 414.831 134.996 417.591 138.656 L 417.591 138.656 L 417.591 138.656 Q 420.351 142.316 422.031 147.296 L 422.031 147.296 L 422.031 147.296 Q 423.711 152.276 423.711 159.116 L 423.711 159.116 L 423.711 159.116 Q 423.711 174.356 418.131 182.216 L 418.131 182.216 L 418.131 182.216 Q 412.551 190.076 399.711 190.076 L 399.711 190.076 L 399.711 190.076 Z " fill="rgb(255,171,59)"/></g></g></svg>