<?xml version="1.0" encoding="UTF-8" standalone="no"?><!-- Generator: Gravit.io --><svg xmlns="http://www.w3.org/2000/svg" xmlns:xlink="http://www.w3.org/1999/xlink" style="isolation:isolate" viewBox="0 0 440 200" width="440pt" height="200pt"><g><g><g><g><path d=" M 361.094 125.844 C 361.094 96.151 337.023 72.08 307.331 72.08 C 277.638 72.08 253.568 96.151 253.568 125.844 C 253.568 155.536 277.638 179.607 307.331 179.607 C 337.023 179.607 361.094 155.536 361.094 125.844 Z " fill="rgb(252,184,95)"/><path d=" M 342.937 85.565 C 347.151 93.236 349.55 102.044 349.55 111.413 C 349.55 141.106 325.479 165.177 295.787 165.177 C 282.129 165.177 269.663 160.081 260.18 151.691 C 269.32 168.329 287.008 179.607 307.331 179.607 C 337.023 179.607 361.094 155.536 361.094 125.844 C 361.094 109.809 354.071 95.416 342.937 85.565 Z " fill="rgb(252,184,95)"/><path d=" M 307.331 178.37 C 305.27 178.37 303.237 178.247 301.237 178.014 C 299.661 177.522 297.632 176.633 296.013 175.071 C 295.959 174.816 295.857 174.261 295.771 173.432 C 297.938 173.697 300.145 173.834 302.383 173.834 C 314.995 173.834 326.591 169.493 335.761 162.222 C 335.52 167.344 333.532 170.033 333.51 170.063 L 332.835 170.937 L 334.023 171.065 C 326.196 175.703 317.07 178.37 307.331 178.37 M 291.968 175.083 C 290.949 175.083 289.722 175.014 288.323 174.81 C 281.793 172.266 275.893 168.453 270.928 163.675 C 277.758 168.611 285.792 171.982 294.508 173.262 C 294.573 173.965 294.653 174.512 294.72 174.893 C 294.165 174.978 293.225 175.083 291.968 175.083 M 356.684 143.83 L 352.859 141.917 C 352.853 140.859 352.827 139.83 352.782 138.834 C 354.957 132.993 356.146 126.67 356.146 120.072 C 356.146 114.977 355.437 110.047 354.113 105.377 C 354.678 105.592 355.335 105.859 356.034 106.179 C 358.497 112.256 359.857 118.894 359.857 125.844 C 359.857 132.159 358.736 138.217 356.684 143.83 M 351.069 142.909 C 351.258 142.505 351.441 142.103 351.621 141.694 C 351.622 141.832 351.623 141.97 351.623 142.109 C 351.437 142.38 351.253 142.646 351.069 142.909 Z  M 355.333 104.528 C 354.692 104.265 354.123 104.055 353.67 103.897 C 352.771 101.045 351.641 98.297 350.301 95.672 C 352.251 98.44 353.94 101.404 355.333 104.528 Z " fill="rgb(252,184,95)"/><path d=" M 301.237 178.014 C 299.661 177.522 297.632 176.633 296.013 175.071 C 295.858 174.334 295.293 171.089 295.908 165.945 C 298.109 165.499 307.924 163.229 316.508 156.85 C 317.857 157.791 322.678 160.565 332.652 160.565 C 333.64 160.565 334.682 160.536 335.773 160.477 C 335.973 166.732 333.535 170.03 333.51 170.063 L 332.835 170.937 L 334.023 171.065 C 326.196 175.703 317.07 178.37 307.331 178.37 C 305.27 178.37 303.237 178.247 301.237 178.014 M 263.74 155.119 L 263.981 155.095 L 263.61 154.304 C 262.167 151.225 262.279 147.374 262.439 145.55 C 264.157 146.728 268.321 148.964 275.184 148.964 C 276.315 148.964 277.523 148.899 278.801 148.763 C 279.355 149.678 280.997 152.301 283.351 155.293 C 285.982 158.636 290.059 163.118 294.685 165.756 C 294.118 170.448 294.495 173.61 294.72 174.893 C 293.715 175.047 291.448 175.266 288.323 174.81 C 278.26 170.89 269.693 163.955 263.74 155.119 M 326.633 76.991 C 329.025 78.872 332.956 82.355 335.037 86.349 C 328.49 89.002 323.635 92.929 322.341 94.033 C 314.327 89.584 300.631 88.051 298.226 87.811 C 295.726 82.647 292.08 79.064 290.608 77.746 C 291.958 76.923 295.256 75.105 299.835 73.855 C 302.284 73.503 304.786 73.317 307.331 73.317 C 314.142 73.317 320.655 74.621 326.633 76.991 Z  M 355.333 104.528 C 354.128 104.035 353.178 103.726 352.77 103.6 C 345.761 93.1 337.521 87.071 336.373 86.26 C 334.99 83.383 332.715 80.779 330.583 78.754 C 340.984 83.911 349.444 92.413 354.547 102.846 C 354.818 103.401 355.08 103.962 355.333 104.528 M 356.684 143.83 L 352.859 141.917 C 352.797 129.52 349.791 121.295 349.2 119.797 C 351.629 113.834 352.628 107.153 352.908 104.945 C 353.601 105.177 354.745 105.59 356.034 106.179 C 358.497 112.256 359.857 118.894 359.857 125.844 C 359.857 132.159 358.736 138.217 356.684 143.83 Z  M 317.127 155.768 C 317.099 153.76 316.808 142.27 313.807 133.754 C 315.581 132.35 323.684 125.683 330.228 116.129 C 337.608 118.497 346.271 120.039 348.086 120.348 C 348.716 121.999 351.593 130.188 351.623 142.109 C 342.914 154.765 337.042 158.684 336.185 159.214 C 323.851 159.978 318.237 156.553 317.127 155.768 M 264.83 104.205 C 263.678 105.278 258.46 110.563 255.018 121.13 C 256.043 109.664 260.767 99.248 267.987 91.085 C 264.956 97.538 264.813 102.89 264.83 104.205 M 289.281 77.125 C 284.713 78.919 280.127 81.293 276.602 83.271 C 281.155 79.975 286.253 77.389 291.735 75.681 C 290.367 76.399 289.518 76.962 289.281 77.125 Z  M 321.904 95.205 C 323.606 100.734 328.469 113.231 329.284 115.319 C 322.691 124.985 314.451 131.675 312.947 132.857 C 311.035 132.3 300.504 129.358 289.788 128.817 C 282.158 117.036 282.633 107.342 282.748 105.974 L 298.07 89.04 C 300.27 89.264 314.181 90.834 321.904 95.205 M 262.426 143.99 C 256.492 134.728 255.641 124.65 255.566 123.576 C 258.83 112.057 264.53 106.2 265.66 105.125 C 271.704 105.964 279.266 106.243 281.493 106.31 C 281.247 109.26 281.646 118.469 288.684 129.385 C 287.464 131.01 282.31 138.161 278.691 147.531 C 268.303 148.639 263.005 144.477 262.426 143.99 Z  M 307.331 70.844 C 277.003 70.844 252.331 95.516 252.331 125.844 C 252.331 156.171 277.003 180.844 307.331 180.844 C 337.658 180.844 362.331 156.171 362.331 125.844 C 362.331 95.516 337.658 70.844 307.331 70.844 Z " fill="rgb(39,39,43)"/><path d=" M 264.832 103.694 C 263.191 101.722 264.09 97.982 266.814 93.89 C 265.14 98.44 264.864 102.124 264.832 103.694 Z " fill="rgb(252,184,95)"/><path d=" M 268.382 105.049 C 266.848 105.049 265.625 104.623 264.857 103.724 C 264.848 103.714 264.84 103.704 264.832 103.694 C 264.864 102.124 265.14 98.44 266.814 93.89 C 268.475 91.394 270.816 88.765 273.672 86.329 C 279.078 81.716 284.868 79.036 288.713 79.036 C 290.247 79.036 291.471 79.462 292.238 80.362 C 294.931 83.517 290.985 91.305 283.423 97.757 C 278.018 102.369 272.227 105.049 268.382 105.049 M 283.205 82.307 C 281.105 82.307 277.558 84.07 274.145 86.982 C 269.641 90.825 267.076 95.212 268.416 96.782 C 268.74 97.162 269.264 97.342 269.935 97.342 C 272.036 97.342 275.582 95.579 278.996 92.667 C 283.499 88.825 286.064 84.437 284.725 82.867 C 284.4 82.487 283.876 82.307 283.205 82.307" fill="rgb(39,39,43)"/><path d=" M 269.935 97.342 C 269.264 97.342 268.74 97.162 268.416 96.782 C 267.076 95.212 269.641 90.825 274.145 86.982 C 277.558 84.07 281.105 82.307 283.205 82.307 C 283.876 82.307 284.4 82.487 284.725 82.867 C 286.064 84.437 283.499 88.825 278.996 92.667 C 275.582 95.579 272.036 97.342 269.935 97.342" fill="rgb(39,39,43)"/></g></g><path d=" M 211.938 62.223 L 202.218 62.223 L 202.218 45.243 L 193.998 10.683 L 204.198 10.683 L 207.078 28.143 L 209.958 10.683 L 220.158 10.683 L 211.938 45.243 L 211.938 62.223 L 211.938 62.223 Z  M 34.458 62.223 L 24.078 62.223 L 24.078 10.683 L 44.718 10.683 L 44.718 20.703 L 34.458 20.703 L 34.458 28.923 L 44.178 28.923 L 44.178 38.823 L 34.458 38.823 L 34.458 62.223 L 34.458 62.223 Z  M 59.958 62.703 L 59.958 62.703 Q 53.598 62.703 50.508 59.103 L 50.508 59.103 L 50.508 59.103 Q 47.418 55.503 47.418 48.423 L 47.418 48.423 L 47.418 10.683 L 57.438 10.683 L 57.438 48.003 L 57.438 48.003 Q 57.438 50.463 57.918 51.843 L 57.918 51.843 L 57.918 51.843 Q 58.398 53.223 59.958 53.223 L 59.958 53.223 L 59.958 53.223 Q 61.518 53.223 61.998 51.873 L 61.998 51.873 L 61.998 51.873 Q 62.478 50.523 62.478 48.003 L 62.478 48.003 L 62.478 10.683 L 72.498 10.683 L 72.498 48.423 L 72.498 48.423 Q 72.498 55.503 69.408 59.103 L 69.408 59.103 L 69.408 59.103 Q 66.318 62.703 59.958 62.703 L 59.958 62.703 L 59.958 62.703 Z  M 91.218 62.223 L 80.898 62.223 L 80.898 20.583 L 74.778 20.583 L 74.778 10.683 L 97.338 10.683 L 97.338 20.583 L 91.218 20.583 L 91.218 62.223 L 91.218 62.223 Z  M 100.218 62.223 L 100.218 10.683 L 114.198 10.683 L 114.198 10.683 Q 119.838 10.683 122.388 13.443 L 122.388 13.443 L 122.388 13.443 Q 124.938 16.203 124.938 22.443 L 124.938 22.443 L 124.938 24.723 L 124.938 24.723 Q 124.938 32.103 119.658 33.543 L 119.658 33.543 L 119.658 33.543 Q 122.898 34.383 124.218 37.443 L 124.218 37.443 L 124.218 37.443 Q 125.538 40.503 125.538 45.543 L 125.538 45.543 L 125.538 45.543 Q 125.538 53.763 123.078 57.993 L 123.078 57.993 L 123.078 57.993 Q 120.618 62.223 114.198 62.223 L 114.198 62.223 L 100.218 62.223 L 100.218 62.223 Z  M 110.298 30.063 L 112.398 30.063 L 112.398 30.063 Q 113.718 30.063 114.198 29.073 L 114.198 29.073 L 114.198 29.073 Q 114.678 28.083 114.678 26.283 L 114.678 26.283 L 114.678 21.123 L 114.678 21.123 Q 114.678 18.603 112.458 18.603 L 112.458 18.603 L 110.298 18.603 L 110.298 30.063 L 110.298 30.063 Z  M 111.318 53.163 L 111.318 53.163 Q 115.338 53.163 115.338 49.323 L 115.338 49.323 L 115.338 42.903 L 115.338 42.903 Q 115.338 40.563 114.648 39.363 L 114.648 39.363 L 114.648 39.363 Q 113.958 38.163 112.218 38.163 L 112.218 38.163 L 110.298 38.163 L 110.298 53.103 L 111.318 53.163 L 111.318 53.163 Z  M 141.258 62.703 L 141.258 62.703 Q 135.018 62.703 131.778 58.893 L 131.778 58.893 L 131.778 58.893 Q 128.538 55.083 128.538 48.183 L 128.538 48.183 L 128.538 23.643 L 128.538 23.643 Q 128.538 16.983 131.778 13.593 L 131.778 13.593 L 131.778 13.593 Q 135.018 10.203 141.258 10.203 L 141.258 10.203 L 141.258 10.203 Q 147.498 10.203 150.738 13.593 L 150.738 13.593 L 150.738 13.593 Q 153.978 16.983 153.978 23.643 L 153.978 23.643 L 153.978 48.183 L 153.978 48.183 Q 153.978 55.143 150.738 58.923 L 150.738 58.923 L 150.738 58.923 Q 147.498 62.703 141.258 62.703 L 141.258 62.703 L 141.258 62.703 Z  M 141.258 53.223 L 141.258 53.223 Q 142.638 53.223 143.118 52.023 L 143.118 52.023 L 143.118 52.023 Q 143.598 50.823 143.598 48.663 L 143.598 48.663 L 143.598 23.463 L 143.598 23.463 Q 143.598 21.783 143.148 20.733 L 143.148 20.733 L 143.148 20.733 Q 142.698 19.683 141.318 19.683 L 141.318 19.683 L 141.318 19.683 Q 138.738 19.683 138.738 23.583 L 138.738 23.583 L 138.738 48.723 L 138.738 48.723 Q 138.738 50.943 139.278 52.083 L 139.278 52.083 L 139.278 52.083 Q 139.818 53.223 141.258 53.223 L 141.258 53.223 L 141.258 53.223 Z  M 179.058 62.223 L 158.118 62.223 L 158.118 10.683 L 168.438 10.683 L 168.438 53.463 L 179.058 53.463 L 179.058 62.223 L 179.058 62.223 Z " fill="rgb(255,255,255)"/><path d=" M 33.929 179.569 L 13.889 179.569 L 23.849 76.489 L 58.769 76.489 L 68.609 179.569 L 49.049 179.569 L 47.609 162.889 L 35.129 162.889 L 33.929 179.569 L 33.929 179.569 Z  M 40.529 94.009 L 36.689 146.449 L 46.049 146.449 L 41.489 94.009 L 40.529 94.009 L 40.529 94.009 Z  M 93.449 179.569 L 74.849 179.569 L 74.849 76.489 L 106.289 76.489 L 114.929 139.369 L 123.569 76.489 L 155.249 76.489 L 155.249 179.569 L 136.409 179.569 L 136.409 105.289 L 124.529 179.569 L 106.049 179.569 L 93.449 105.289 L 93.449 179.569 L 93.449 179.569 Z  M 183.329 179.569 L 163.409 179.569 L 163.409 76.489 L 183.329 76.489 L 183.329 179.569 L 183.329 179.569 Z  M 212.849 180.529 L 212.849 180.529 Q 201.689 180.529 196.229 172.669 L 196.229 172.669 L 196.229 172.669 Q 190.769 164.809 190.769 148.849 L 190.769 148.849 L 190.769 104.449 L 190.769 104.449 Q 190.769 90.169 197.129 82.849 L 197.129 82.849 L 197.129 82.849 Q 203.489 75.529 216.089 75.529 L 216.089 75.529 L 216.089 75.529 Q 226.289 75.529 231.929 79.609 L 231.929 79.609 L 231.929 79.609 Q 237.569 83.689 239.729 91.489 L 239.729 91.489 L 239.729 91.489 Q 241.889 99.289 241.889 111.529 L 241.889 111.529 L 221.729 111.529 L 221.729 102.289 L 221.729 102.289 Q 221.729 98.569 220.709 96.529 L 220.709 96.529 L 220.709 96.529 Q 219.689 94.489 217.049 94.489 L 217.049 94.489 L 217.049 94.489 Q 211.169 94.489 211.169 102.169 L 211.169 102.169 L 211.169 152.089 L 211.169 152.089 Q 211.169 156.769 212.369 159.169 L 212.369 159.169 L 212.369 159.169 Q 213.569 161.569 216.569 161.569 L 216.569 161.569 L 216.569 161.569 Q 219.569 161.569 220.769 159.169 L 220.769 159.169 L 220.769 159.169 Q 221.969 156.769 221.969 152.089 L 221.969 152.089 L 221.969 137.329 L 216.449 137.329 L 216.449 119.569 L 241.649 119.569 L 241.649 179.569 L 233.369 179.569 L 229.889 170.929 L 229.889 170.929 Q 224.369 180.529 212.849 180.529 L 212.849 180.529 L 212.849 180.529 Z " fill="rgb(252,184,95)"/><path d=" M 399.711 180.529 L 399.711 180.529 Q 385.671 180.529 379.431 173.569 L 379.431 173.569 L 379.431 173.569 Q 373.191 166.609 373.191 151.129 L 373.191 151.129 L 373.191 141.049 L 393.471 141.049 L 393.471 153.889 L 393.471 153.889 Q 393.471 161.569 398.391 161.569 L 398.391 161.569 L 398.391 161.569 Q 401.151 161.569 402.231 159.949 L 402.231 159.949 L 402.231 159.949 Q 403.311 158.329 403.311 154.489 L 403.311 154.489 L 403.311 154.489 Q 403.311 149.449 402.111 146.149 L 402.111 146.149 L 402.111 146.149 Q 400.911 142.849 399.051 140.629 L 399.051 140.629 L 399.051 140.629 Q 397.191 138.409 392.391 133.729 L 392.391 133.729 L 383.511 124.849 L 383.511 124.849 Q 373.191 114.769 373.191 102.529 L 373.191 102.529 L 373.191 102.529 Q 373.191 89.329 379.251 82.429 L 379.251 82.429 L 379.251 82.429 Q 385.311 75.529 396.951 75.529 L 396.951 75.529 L 396.951 75.529 Q 410.871 75.529 416.991 82.909 L 416.991 82.909 L 416.991 82.909 Q 423.111 90.289 423.111 106.009 L 423.111 106.009 L 402.111 106.009 L 401.991 98.929 L 401.991 98.929 Q 401.991 96.889 400.851 95.689 L 400.851 95.689 L 400.851 95.689 Q 399.711 94.489 397.671 94.489 L 397.671 94.489 L 397.671 94.489 Q 395.271 94.489 394.071 95.809 L 394.071 95.809 L 394.071 95.809 Q 392.871 97.129 392.871 99.409 L 392.871 99.409 L 392.871 99.409 Q 392.871 104.449 398.631 109.849 L 398.631 109.849 L 410.631 121.369 L 410.631 121.369 Q 414.831 125.449 417.591 129.109 L 417.591 129.109 L 417.591 129.109 Q 420.351 132.769 422.031 137.749 L 422.031 137.749 L 422.031 137.749 Q 423.711 142.729 423.711 149.569 L 423.711 149.569 L 423.711 149.569 Q 423.711 164.809 418.131 172.669 L 418.131 172.669 L 418.131 172.669 Q 412.551 180.529 399.711 180.529 L 399.711 180.529 L 399.711 180.529 Z " fill="rgb(252,184,95)"/></g></g></svg>